<?xml version="1.0" encoding="utf-8"?>
<svg version="1.2" baseProfile="tiny-ps" xmlns="http://www.w3.org/2000/svg" width="1024px" height="1024px" viewBox="0 0 1024 1024" preserveAspectRatio="xMidYMid meet">
 <g fill="#000000" fill-rule="evenodd">
  <path d="M481.5 752.5 C429.2 744.6 384.6 724.6 347.4 692.2 C321.6 669.7 301.5 643.9 286.5 614 C274.8 590.6 267.5 568.6 262.8 542.5 C259.5 523.6 259 491.1 261.9 471.4 C265.9 443.4 273.4 419.1 285.3 395 C310.4 343.9 351.6 302.9 402.5 278.5 C436.2 262.3 472.8 253.9 510.5 254 C523.1 254 542.8 255.4 543.7 256.4 C544.1 256.8 541.5 271.5 536.1 299.7 C535.5 303 535.5 303 511 303.3 C481.9 303.7 470.2 305.4 449 312.5 C417.8 322.9 393.1 338 369.6 360.9 C334.4 395.2 313.9 439.2 309.7 489.2 C307 522 314.3 558.7 329.9 590.6 C347.3 626.3 374.3 655.8 408.7 676.8 C433.3 691.8 464 702 493.8 704.9 C528.7 708.4 567 701.5 599.5 686 C641.5 666 674.2 633.8 693.6 593.5 C708 563.4 713.7 536.1 712.7 502 C711.5 466 701.8 435.6 681.6 405 C674.7 394.5 674.7 394.5 677.7 392 C686.3 384.4 714.3 361.8 715.4 361.3 C717.9 360.4 731.5 380.9 741.2 400.5 C755.4 428.9 762.8 457.5 765 491.6 C767.8 536.1 759 579.3 739.2 618.5 C703.8 688.2 635.4 737.8 556.2 750.9 C539.6 753.7 495.4 754.6 481.5 752.5 "/>
  <path d="M485.3 687.5 C455.5 683 426 670.7 401.2 652.5 C391.5 645.4 372.8 626.9 364.7 616.5 C336.5 580.1 321.4 530.3 325.8 487.7 C331.7 430 361 381.6 409.5 349.7 C441 328.9 473.9 319.5 513 320.1 C530.5 320.5 530.5 320.5 530.4 324 C530.1 332.9 530.4 332.7 517.1 332.2 C496.9 331.3 473.4 334.7 455 341.1 C442.2 345.6 421.7 356.1 411 363.7 C405.7 367.4 395.6 376.2 388.4 383.4 C340.3 431.6 325.5 500.1 349.5 563.1 C365.1 604.1 394.3 637 433 657.3 C491.4 687.9 560.9 682.2 615.5 642.4 C627.2 633.8 645.4 616.7 644.8 614.8 C644.5 614.1 640.9 611 636.7 608 C629.1 602.6 629.1 602.6 634.4 596 C641.1 587.7 645.6 580.7 651 570 C660.2 551.5 663.9 536.2 664.7 512.9 C665.1 498.7 664.9 494.9 663 485.2 C657.6 456.9 646.2 434.1 627.4 414.1 C604.9 390.2 578.2 375.4 547.5 369.9 C544.2 369.3 541.2 368.6 540.9 368.4 C539.9 367.8 545.5 340.6 546.7 340.2 C547.2 340 552.4 340.8 558 342 C574.5 345.3 596.6 354.2 611.9 363.7 C651.3 388 679.1 424.5 689.9 466.2 C695.9 489.3 697.3 509.7 694.4 531.4 C690.6 560.7 680.4 586.9 663.2 612 C653.8 625.6 631.6 647.4 617.5 656.8 C584.4 679 551.7 689 512.5 689 C502.3 689 490.9 688.3 485.3 687.5 "/>
  <path d="M656.4 378.7 C651.5 372.8 636.3 360.1 625.5 352.8 C607.3 340.6 580.2 329.6 558.2 325.4 C553.1 324.4 549 323.4 549 323 C549 321 562.9 253.7 563.4 253.2 C563.7 252.8 567.5 253.1 571.7 253.9 C609.3 260.1 651.5 279.4 683 304.6 C692.4 312.2 716.2 335.7 715.8 337 C715.6 337.4 710.9 341.5 705.4 346.1 C675.3 371.1 660.9 383 660.5 383 C660.2 383 658.4 381 656.4 378.7 "/>
 </g>
 <g fill="#ffffff" fill-rule="evenodd">
  <path d="M0 512 C0 0 0 0 512 0 C1024 0 1024 0 1024 512 C1024 1024 1024 1024 512 1024 C0 1024 0 1024 0 512 M481.5 752.5 C429.2 744.6 384.6 724.6 347.4 692.2 C321.6 669.7 301.5 643.9 286.5 614 C274.8 590.6 267.5 568.6 262.8 542.5 C259.5 523.6 259 491.1 261.9 471.4 C265.9 443.4 273.4 419.1 285.3 395 C310.4 343.9 351.6 302.9 402.5 278.5 C436.2 262.3 472.8 253.9 510.5 254 C523.1 254 542.8 255.4 543.7 256.4 C544.1 256.8 541.5 271.5 536.1 299.7 C535.5 303 535.5 303 511 303.3 C481.9 303.7 470.2 305.4 449 312.5 C417.8 322.9 393.1 338 369.6 360.9 C334.4 395.2 313.9 439.2 309.7 489.2 C307 522 314.3 558.7 329.9 590.6 C347.3 626.3 374.3 655.8 408.7 676.8 C433.3 691.8 464 702 493.8 704.9 C528.7 708.4 567 701.5 599.5 686 C641.5 666 674.2 633.8 693.6 593.5 C708 563.4 713.7 536.1 712.7 502 C711.5 466 701.8 435.6 681.6 405 C674.7 394.5 674.7 394.5 677.7 392 C686.3 384.4 714.3 361.8 715.4 361.3 C717.9 360.4 731.5 380.9 741.2 400.5 C755.4 428.9 762.8 457.5 765 491.6 C767.8 536.1 759 579.3 739.2 618.5 C703.8 688.2 635.4 737.8 556.2 750.9 C539.6 753.7 495.4 754.6 481.5 752.5 M485.3 687.5 C455.5 683 426 670.7 401.2 652.5 C391.5 645.4 372.8 626.9 364.7 616.5 C336.5 580.1 321.4 530.3 325.8 487.7 C331.7 430 361 381.6 409.5 349.7 C441 328.9 473.9 319.5 513 320.1 C530.5 320.5 530.5 320.5 530.4 324 C530.1 332.9 530.4 332.7 517.1 332.2 C496.9 331.3 473.4 334.7 455 341.1 C442.2 345.6 421.7 356.1 411 363.7 C405.7 367.4 395.6 376.2 388.4 383.4 C340.3 431.6 325.5 500.1 349.5 563.1 C365.1 604.1 394.3 637 433 657.3 C491.4 687.9 560.9 682.2 615.5 642.4 C627.2 633.8 645.4 616.7 644.8 614.8 C644.5 614.1 640.9 611 636.7 608 C629.1 602.6 629.1 602.6 634.4 596 C641.1 587.7 645.6 580.7 651 570 C660.2 551.5 663.9 536.2 664.7 512.9 C665.1 498.7 664.9 494.9 663 485.2 C657.6 456.9 646.2 434.1 627.4 414.1 C604.9 390.2 578.2 375.4 547.5 369.9 C544.2 369.3 541.2 368.6 540.9 368.4 C539.9 367.8 545.5 340.6 546.7 340.2 C547.2 340 552.4 340.8 558 342 C574.5 345.3 596.6 354.2 611.9 363.7 C651.3 388 679.1 424.5 689.9 466.2 C695.9 489.3 697.3 509.7 694.4 531.4 C690.6 560.7 680.4 586.9 663.2 612 C653.8 625.6 631.6 647.4 617.5 656.8 C584.4 679 551.7 689 512.5 689 C502.3 689 490.9 688.3 485.3 687.5 M656.4 378.7 C651.5 372.8 636.3 360.1 625.5 352.8 C607.3 340.6 580.2 329.6 558.2 325.4 C553.1 324.4 549 323.4 549 323 C549 321 562.9 253.7 563.4 253.2 C563.7 252.8 567.5 253.1 571.7 253.9 C609.3 260.1 651.5 279.4 683 304.6 C692.4 312.2 716.2 335.7 715.8 337 C715.6 337.4 710.9 341.5 705.4 346.1 C675.3 371.1 660.9 383 660.5 383 C660.2 383 658.4 381 656.4 378.7 "/>
 </g>
</svg>